<svg width="50" height="50" xmlns="http://www.w3.org/2000/svg">
 <g id="Layer_1">
  <title>Layer 1</title>
  <path id="svg_15" d="m511.46652,417.53439l22.77348,0.049l-22.77348,-0.049z" opacity="NaN" stroke-width="0" stroke="#000" fill="#ffffff"/>
  <g stroke="null" id="svg_27">
   <path stroke="#000" id="svg_8" d="m19.06993,37.11449l-9.21644,2.33195l-0.52665,23.78596l22.64609,0.69959l3.15992,-22.61999l-7.8998,-3.73113" opacity="NaN" stroke-width="0" fill="#eaeaea"/>
   <path stroke="#000" id="svg_6" d="m13.92732,41.38668l1.56586,-5.88846l13.73452,1.24011l1.21698,5.27048" opacity="NaN" stroke-width="0" fill="#eaeaea"/>
   <path stroke="#000" stroke-width="0" id="svg_2" d="m19.82471,29.54962l-0.38603,12.08499l8.8802,-0.46481l-3.08876,-9.76103" opacity="NaN" fill="#fcfca6"/>
   <path stroke="#000" stroke-width="0" id="svg_1" d="m13.77686,8.80031l1.03326,21.07355l7.43918,3.64735l6.6126,1.41841l5.1661,-4.86314l1.85979,-4.45787l-2.27308,-19.04728" opacity="NaN" fill="#fcfca6"/>
   <path stroke="#000" id="svg_4" d="m24.05023,42.98455l-0.1633,-5.90899l-9.20666,-1.91678l-0.98643,4.31275" opacity="NaN" stroke-width="0" fill="#ffffff"/>
   <path stroke="#000" id="svg_5" d="m26.22396,42.76493l-0.14709,-5.25708l3.40597,-1.08255l2.22129,4.79416" opacity="NaN" stroke-width="0" fill="#ffffff"/>
   <path stroke="#000" id="svg_10" d="m34.9767,41.21292l9.38067,13.75951l3.24688,4.25532l-2.16458,5.10639l-6.13299,0l-6.13299,-15.60285" opacity="NaN" stroke-width="0" fill="#eaeaea"/>
   <path stroke="#000" id="svg_11" d="m13.14351,38.52884l-6.81329,2.12829l-2.09658,12.76596l5.24144,2.2695l1.57243,0" opacity="NaN" stroke-width="0" fill="#eaeaea"/>
   <path stroke="#000" id="svg_12" d="m12.79817,24.05499l1.7537,4.18973l0.5261,-6.45922l1.5783,3.84062l0.35073,-9.07782l3.33197,-0.17457l-0.70147,-2.44403l5.43637,1.92031l-1.75367,-3.49147l5.43637,2.79318l-2.1044,-4.53891l4.7349,3.84062l0.5261,1.92031l1.22757,-2.44403l-5.43637,-4.36434l4.2088,3.49147l2.6305,-0.52372l1.75367,1.92031l0,-3.3169l-1.22757,-1.04744l3.33197,0l-2.98124,-2.44403l-0.35073,-1.39659l-2.98124,-1.39659l-6.31321,0l-5.08564,1.04744l-5.26101,0.87287l-2.80587,2.79318l-1.5783,5.9355" opacity="NaN" stroke-width="0" fill="#a0642c"/>
   <path stroke="#000" id="svg_14" d="m21.87301,27.5878l2.68365,0.52894l4.25607,0.36834l1.83785,0l-0.19346,1.84169l-1.64439,0.82876l-2.41822,-0.27625l-2.32149,-0.36834l-1.83785,-2.02586" opacity="NaN" stroke-width="0" fill="#ffffff"/>
  </g>
 </g>
</svg>